<svg width="177" height="243" viewBox="0 0 177 243" fill="none" xmlns="http://www.w3.org/2000/svg">
<path d="M107.804 105.105C93.9759 109.654 63.3107 98.509 63.3107 98.509C27.3797 82.7505 76.8069 147.662 76.8069 147.662C76.8069 147.662 77.8358 167.921 84.0529 170.446C135.903 117.327 121.632 100.549 107.804 105.105ZM89.1416 155.473C84.9489 155.473 67.3264 116.793 69.4061 108.699C83.2453 109.711 96.0557 113.531 103.667 110.496C125.095 103.39 93.9759 155.473 89.1416 155.473ZM132.197 185.476C133.469 126.352 176.956 103.6 176.956 68.3922C176.956 38.3482 148.857 0 89.8939 0C30.9418 0 0 36.689 0 68.6674C0 104.571 44.1726 127.137 44.1726 185.849H88.8983C88.8983 185.849 130.914 185.476 132.197 185.476ZM53.1774 177.973C53.1774 123.171 10.3877 102.111 10.3877 68.6026C10.3877 38.7529 38.1546 7.44625 89.739 7.44625C141.323 7.44625 166.601 40.3069 166.601 68.3436C166.601 101.204 124.409 122.912 123.281 178.095C122.152 178.095 88.8651 177.965 88.8651 177.965H53.1774V177.973ZM127.252 194.112H49.8144C46.7612 194.112 44.2832 195.925 44.2832 198.159C44.2832 200.393 46.7612 202.206 49.8144 202.206H127.252C130.294 202.206 132.783 200.393 132.783 198.159C132.783 195.925 130.294 194.112 127.252 194.112ZM127.252 210.3H49.8144C46.7612 210.3 44.2832 212.113 44.2832 214.347C44.2832 216.581 46.7612 218.394 49.8144 218.394H127.252C130.294 218.394 132.783 216.581 132.783 214.347C132.783 212.113 130.294 210.3 127.252 210.3ZM55.2572 226.722C55.2572 226.722 55.2572 229.425 55.2572 234.007C55.2572 238.588 60.1689 242.303 66.2312 242.303H110.824C116.897 242.303 121.798 238.588 121.798 234.007C121.798 229.425 121.112 226.722 121.112 226.722H55.2572Z" fill="#4D3EFC"/>
</svg>
