<svg width="150" height="150" viewBox="0 0 150 150" fill="none" xmlns="http://www.w3.org/2000/svg">
<g clip-path="url(#clip0_208_89)">
<path d="M45.9155 106.983H41.8546C41.711 100.129 41.3155 93.6848 40.6689 87.6464H40.6328L34.45 106.983H31.3582L25.2123 87.6464H25.177C24.721 93.4439 24.4338 99.8896 24.3146 106.983H20.613C20.8516 98.357 21.4511 90.2697 22.4093 82.7207H27.4425L33.3004 100.549H33.3365L39.2305 82.7207H44.0463C45.101 91.5629 45.7241 99.651 45.9155 106.983ZM63.527 89.0824C61.8736 98.0549 59.6921 104.574 56.9848 108.644C54.8755 111.777 52.5645 113.344 50.0479 113.344C49.3769 113.344 48.5491 113.142 47.5682 112.74V110.577C48.0476 110.646 48.6103 110.685 49.2569 110.685C50.4324 110.685 51.3772 110.362 52.0976 109.713C52.9592 108.924 53.39 108.037 53.39 107.055C53.39 106.382 53.0541 105.005 52.384 102.921L47.9276 89.0816H51.9171L55.1156 99.4321C55.8344 101.782 56.1342 103.423 56.0141 104.358C57.7632 99.6863 58.9851 94.5927 59.6811 89.0809H63.527V89.0824Z" fill="#5D87A1"/>
<path d="M117.582 106.983H106.047V82.7203H109.928V103.996H117.582V106.983ZM103.027 107.569L98.5671 105.368C98.9626 105.043 99.3409 104.692 99.6814 104.284C101.577 102.057 102.523 98.7639 102.523 94.4017C102.523 86.3748 99.373 82.3594 93.0709 82.3594C89.9807 82.3594 87.5701 83.3779 85.846 85.4159C83.9517 87.6445 83.0061 90.9262 83.0061 95.2649C83.0061 99.5298 83.8442 102.659 85.5212 104.643C87.0553 106.441 89.3678 107.341 92.4604 107.341C93.614 107.341 94.6726 107.2 95.637 106.915L101.444 110.295L103.027 107.569ZM88.5784 102.128C87.5959 100.548 87.1047 98.0098 87.1047 94.5108C87.1047 88.4017 88.9606 85.3437 92.6762 85.3437C94.6184 85.3437 96.0419 86.075 96.9522 87.5346C97.9331 89.1174 98.4267 91.6324 98.4267 95.0828C98.4267 101.242 96.5692 104.322 92.8559 104.322C90.913 104.323 89.4895 103.594 88.5784 102.128ZM81.3151 100.258C81.3151 102.316 80.5601 104.004 79.0519 105.326C77.5421 106.643 75.5175 107.302 72.9805 107.302C70.6075 107.302 68.3067 106.544 66.0797 105.036L67.1226 102.953C69.0389 103.912 70.7739 104.39 72.3316 104.39C73.7935 104.39 74.9361 104.066 75.7647 103.423C76.5926 102.778 77.0862 101.873 77.0862 100.729C77.0862 99.2874 76.081 98.0553 74.2369 97.0234C72.5364 96.0896 69.1354 94.1372 69.1354 94.1372C67.2921 92.7938 66.3693 91.3515 66.3693 88.9753C66.3693 87.0088 67.0575 85.4214 68.4347 84.2137C69.8134 83.0013 71.5924 82.397 73.7731 82.397C76.0253 82.397 78.0726 83.0005 79.9167 84.1948L78.9813 86.279C77.404 85.6089 75.8471 85.2738 74.3114 85.2738C73.0676 85.2738 72.1071 85.5728 71.4394 86.1731C70.7661 86.7711 70.3509 87.5362 70.3509 88.4747C70.3509 89.9092 71.3774 91.1569 73.2717 92.2092C74.9949 93.1446 78.4806 95.1307 78.4806 95.1307C80.371 96.4718 81.3151 97.9008 81.3151 100.258Z" fill="#F8981D"/>
<path d="M122.454 74.594C120.108 74.5344 118.291 74.7706 116.766 75.4156C116.326 75.5914 115.626 75.5914 115.565 76.1478C115.803 76.3832 115.83 76.763 116.037 77.0879C116.388 77.6741 117.001 78.4627 117.561 78.8739C118.175 79.3447 118.792 79.8109 119.438 80.2213C120.579 80.9267 121.871 81.3371 122.982 82.0402C123.63 82.4491 124.273 82.978 124.921 83.4182C125.24 83.6529 125.444 84.0334 125.857 84.1802V84.0907C125.65 83.8271 125.591 83.4457 125.388 83.1522L124.508 82.3031C123.657 81.1606 122.6 80.1632 121.46 79.344C120.521 78.6973 118.468 77.8185 118.088 76.7371L118.028 76.6775C118.673 76.617 119.438 76.3832 120.051 76.2035C121.049 75.9406 121.958 76.0003 122.981 75.7374C123.452 75.6197 123.919 75.4721 124.391 75.327V75.0625C123.861 74.5344 123.483 73.8329 122.925 73.3338C121.432 72.0445 119.788 70.7834 118.088 69.728C117.178 69.1402 116.007 68.762 115.038 68.2621C114.688 68.0856 114.1 67.9985 113.894 67.705C113.369 67.0599 113.073 66.2109 112.691 65.4473C111.844 63.8363 111.021 62.0487 110.289 60.3451C109.76 59.2025 109.439 58.0616 108.794 57.0045C105.772 52.0216 102.492 49.0035 97.4489 46.0412C96.3652 45.4244 95.0759 45.1615 93.6987 44.8382L91.4992 44.7221C91.0299 44.5165 90.5599 43.9586 90.1502 43.6949C88.4772 42.6402 84.1699 40.3544 82.9395 43.3724C82.1469 45.28 84.1118 47.1555 84.7867 48.1231C85.285 48.7948 85.9308 49.5591 86.2792 50.3219C86.4856 50.8202 86.5437 51.3491 86.7501 51.8756C87.2193 53.1657 87.658 54.6009 88.2748 55.8047C88.5965 56.4184 88.9473 57.0634 89.3585 57.619C89.5939 57.9439 90.0035 58.0875 90.093 58.6171C89.6841 59.201 89.6519 60.0822 89.4173 60.8151C88.3626 64.1274 88.7746 68.2307 90.2695 70.665C90.7372 71.3979 91.8531 73.0113 93.3456 72.3929C94.6671 71.8656 94.3744 70.1949 94.7542 68.7298C94.8413 68.3759 94.784 68.1436 94.9598 67.9114V67.9687C95.3686 68.7887 95.7814 69.5789 96.1604 70.4013C97.0699 71.8365 98.6535 73.3322 99.9726 74.3265C100.675 74.8569 101.231 75.7641 102.111 76.0881V76.0003H102.053C101.875 75.7374 101.614 75.6197 101.38 75.4156C100.851 74.8875 100.266 74.2425 99.8557 73.6571C98.6268 72.0147 97.5392 70.1965 96.574 68.3202C96.1016 67.4099 95.6943 66.4149 95.3137 65.5062C95.1364 65.1554 95.1364 64.6265 94.8421 64.45C94.4011 65.0942 93.7584 65.6522 93.4367 66.4416C92.8787 67.7042 92.8206 69.2572 92.6135 70.8721L92.4981 70.9286C91.5643 70.694 91.2394 69.728 90.8847 68.908C90.0066 66.8253 89.8591 63.4824 90.6211 61.0796C90.8251 60.4652 91.7079 58.53 91.3556 57.9446C91.179 57.3836 90.592 57.0642 90.2703 56.6224C89.8921 56.0668 89.4777 55.3637 89.2141 54.7469C88.511 53.1061 88.1571 51.2879 87.3998 49.6478C87.0459 48.8835 86.4315 48.0925 85.9339 47.3886C85.3752 46.5976 84.7608 46.0404 84.319 45.1027C84.173 44.7802 83.9682 44.2528 84.2029 43.9021C84.2601 43.6667 84.3794 43.5788 84.6133 43.5199C84.9931 43.199 86.0783 43.607 86.4589 43.7836C87.5458 44.223 88.4545 44.6334 89.3616 45.2487C89.772 45.5429 90.2122 46.1001 90.7388 46.2468H91.3556C92.2917 46.4508 93.3472 46.3033 94.2284 46.5686C95.7814 47.0676 97.1884 47.7998 98.4502 48.59C102.29 51.025 105.456 54.4848 107.594 58.6171C107.945 59.2904 108.094 59.9072 108.414 60.6095C109.031 62.0472 109.795 63.513 110.408 64.92C111.024 66.2972 111.611 67.7034 112.49 68.8475C112.929 69.4628 114.692 69.7853 115.482 70.1078C116.066 70.3707 116.977 70.6045 117.504 70.927C118.501 71.5415 119.495 72.2469 120.433 72.9226C120.899 73.2741 122.367 74.0071 122.454 74.594ZM92.5515 49.1189C92.1468 49.1147 91.7433 49.1643 91.3517 49.2664V49.3253H91.4081C91.6444 49.7938 92.0548 50.1186 92.3475 50.5275C92.5837 50.9975 92.7885 51.4636 93.02 51.9329L93.0765 51.8748C93.49 51.5821 93.6956 51.1129 93.6956 50.409C93.5175 50.2018 93.49 49.9993 93.3417 49.7938C93.1691 49.5003 92.7885 49.3543 92.5515 49.1189Z" fill="#5D87A1"/>
<path d="M125.246 106.979H125.853V104.007H124.942L124.199 106.035L123.392 104.007H122.514V106.979H123.088V104.718H123.12L123.966 106.979H124.403L125.246 104.718V106.979ZM120.353 106.979H120.996V104.51H121.837V104.006H119.477V104.51H120.352L120.353 106.979Z" fill="#F8981D"/>
</g>
<defs>
<clipPath id="clip0_208_89">
<rect width="150" height="150" fill="white"/>
</clipPath>
</defs>
</svg>
